<svg width="169" height="76" viewBox="0 0 169 76" fill="none" xmlns="http://www.w3.org/2000/svg">
<path d="M57.8438 2.375C56.8021 2.45833 55.974 2.58854 55.3594 2.76562C54.7552 2.93229 54.3542 3.25 54.1562 3.71875L45.5625 25.0938H43.9531L34.7031 3.9375C34.3177 3.08333 33.1146 2.5625 31.0938 2.375C30.9167 1.6875 30.9375 1.01562 31.1562 0.359375C35.9792 0.505208 40.1615 0.526042 43.7031 0.421875C43.9115 1.01562 43.9115 1.67708 43.7031 2.40625C42.3594 2.51042 41.5156 2.625 41.1719 2.75C40.8281 2.875 40.7292 3.13021 40.875 3.51562L46.2344 15.9688L51.1875 3.51562C51.25 3.34896 51.2031 3.20312 51.0469 3.07812C50.901 2.94271 50.651 2.83333 50.2969 2.75C49.9531 2.66667 49.6042 2.59896 49.25 2.54688C48.8958 2.49479 48.4635 2.44792 47.9531 2.40625C47.7865 1.71875 47.8073 1.04688 48.0156 0.390625C51.4531 0.515625 54.7083 0.505208 57.7812 0.359375C57.9896 1.01562 58.0104 1.6875 57.8438 2.375ZM57.3281 1.76562C57.4115 1.46354 57.4115 1.21875 57.3281 1.03125C55.9635 1.09375 54.5677 1.125 53.1406 1.125C51.776 1.125 50.2292 1.09375 48.5 1.03125C48.4167 1.21875 48.4167 1.46354 48.5 1.76562C48.9688 1.80729 49.3594 1.84896 49.6719 1.89062C49.9948 1.93229 50.3854 2.01042 50.8438 2.125C51.3021 2.23958 51.6198 2.41667 51.7969 2.65625C51.9844 2.89583 52.0156 3.17188 51.8906 3.48438L45.4219 19.75L38.5156 3.6875C38.2135 2.97917 38.3333 2.52083 38.875 2.3125C39.4271 2.09375 40.8333 1.91146 43.0938 1.76562C43.1771 1.46354 43.1771 1.21875 43.0938 1.03125C40.0208 1.17708 36.1927 1.17708 31.6094 1.03125C31.5156 1.21875 31.5156 1.46354 31.6094 1.76562C33.5677 1.95312 34.7917 2.59375 35.2812 3.6875L44.375 24.4531H45.1094L53.5625 3.48438C53.8542 2.89062 54.3125 2.47917 54.9375 2.25C55.5729 2.01042 56.3698 1.84896 57.3281 1.76562ZM63.0156 12.6406C63.5052 12.724 63.8906 12.9167 64.1719 13.2188C64.4635 13.5104 64.6094 13.8854 64.6094 14.3438C64.6094 14.8958 64.4271 15.3542 64.0625 15.7188C63.6979 16.0729 63.2188 16.25 62.625 16.25C62.0104 16.25 61.4531 16.0312 60.9531 15.5938C60.4531 15.1562 60.2031 14.5365 60.2031 13.7344C60.2031 12.3698 60.849 11.2656 62.1406 10.4219C63.4427 9.57812 65.1406 9.15625 67.2344 9.15625C69.224 9.15625 70.6198 9.55729 71.4219 10.3594C72.2344 11.151 72.6406 12.4896 72.6406 14.375V19.8438L73.6406 19.8125C74.4948 19.875 75.0885 20.2812 75.4219 21.0312L74.9219 21.8906C74.599 22.3802 74.3281 22.7604 74.1094 23.0312C73.901 23.2917 73.599 23.5885 73.2031 23.9219C72.8073 24.2552 72.3438 24.4948 71.8125 24.6406C71.2812 24.7865 70.6615 24.8594 69.9531 24.8594C69.0781 24.8594 68.4167 24.5312 67.9688 23.875C66.8438 24.6875 65.375 25.0938 63.5625 25.0938C62.7708 25.0938 62.0938 24.9688 61.5312 24.7188C60.9792 24.4792 60.5729 24.1562 60.3125 23.75C60.0625 23.3438 59.8854 22.9635 59.7812 22.6094C59.6771 22.2552 59.625 21.8958 59.625 21.5312C59.625 20 60.1406 18.8542 61.1719 18.0938C62.2031 17.3333 64.2865 16.5521 67.4219 15.75V14.0469C67.4219 13.2135 67.2448 12.6042 66.8906 12.2188C66.5469 11.8333 66.099 11.6406 65.5469 11.6406C64.3698 11.6406 63.526 11.974 63.0156 12.6406ZM68.0625 17.2188V20.4844C67.0625 21.8073 66.0417 22.4688 65 22.4688C64.3958 22.4688 63.901 22.3229 63.5156 22.0312C63.1406 21.7396 62.9531 21.3281 62.9531 20.7969C62.9531 19.9427 63.3021 19.2396 64 18.6875C64.7083 18.1354 66.0625 17.6458 68.0625 17.2188ZM67.4219 20.2812V18.375C65.9115 18.9271 65.1562 19.7344 65.1562 20.7969C65.1562 21.2448 65.3177 21.5573 65.6406 21.7344C66.1927 21.5365 66.7865 21.0521 67.4219 20.2812ZM62.625 14.875C62.2604 14.875 62.0052 14.6094 61.8594 14.0781C61.651 13.224 61.9062 12.4792 62.625 11.8438C63.3333 11.2188 64.401 10.9062 65.8281 10.9062C66.5052 10.9062 67.0469 11.1719 67.4531 11.7031C67.8594 12.224 68.0625 13.0052 68.0625 14.0469V16.2188C64.9896 17.0104 62.9219 17.7604 61.8594 18.4688C60.7969 19.1667 60.2656 20.1875 60.2656 21.5312C60.2656 22.2396 60.5052 22.9062 60.9844 23.5312C61.4635 24.1458 62.3229 24.4531 63.5625 24.4531C64.0521 24.4531 64.5104 24.375 64.9375 24.2188C65.375 24.0625 65.8229 23.8125 66.2812 23.4688C66.75 23.1146 67.0365 22.8906 67.1406 22.7969C67.2448 22.7031 67.4167 22.5417 67.6562 22.3125C67.9062 22.0729 68.0417 21.9427 68.0625 21.9219C68.1979 23.4531 68.8281 24.2188 69.9531 24.2188C70.2344 24.2188 70.5573 24.1458 70.9219 24C71.2865 23.8542 71.651 23.5677 72.0156 23.1406C72.3906 22.7135 72.625 22.4323 72.7188 22.2969C72.8229 22.151 72.974 21.9271 73.1719 21.625C73.3698 21.3125 73.5156 21.099 73.6094 20.9844C73.474 20.6927 73.2135 20.526 72.8281 20.4844C72.2552 21.3594 71.6719 21.7865 71.0781 21.7656C70.651 21.7448 70.4375 21.4427 70.4375 20.8594V14.375C70.4375 12.7083 70.1094 11.5312 69.4531 10.8438C68.8073 10.1458 67.6927 9.79688 66.1094 9.79688C64.6823 9.79688 63.4427 10.1667 62.3906 10.9062C61.349 11.6354 60.8281 12.5781 60.8281 13.7344C60.8281 14.3281 61.0104 14.7917 61.375 15.125C61.7396 15.4479 62.1562 15.6094 62.625 15.6094C62.7708 15.401 62.7708 15.1562 62.625 14.875ZM93.4844 14.0469C93.4844 17.0573 93.5417 19.6354 93.6562 21.7812C93.6771 22.3333 94.026 22.6406 94.7031 22.7031C94.9635 23.349 94.9635 23.9792 94.7031 24.5938C92.0365 24.5312 89.3594 24.5312 86.6719 24.5938C86.4219 23.9792 86.4219 23.349 86.6719 22.7031C87.6927 22.5573 88.2031 22.25 88.2031 21.7812L88.2344 14.4375C88.2344 13.3021 88.0104 12.6094 87.5625 12.3594C86.6458 12.5885 85.7188 13.151 84.7812 14.0469C84.7812 16.9115 84.8229 19.4792 84.9062 21.75C84.9375 22.0208 85.0156 22.2292 85.1406 22.375C85.2656 22.5104 85.5417 22.6198 85.9688 22.7031C86.2292 23.349 86.2292 23.9792 85.9688 24.5938C82.9792 24.5104 79.974 24.5104 76.9531 24.5938C76.6927 23.9792 76.6927 23.349 76.9531 22.7031C78.651 22.474 79.5104 22.1562 79.5312 21.75C79.625 19.4062 79.625 16.4531 79.5312 12.8906C78.8333 12.6823 77.974 12.5469 76.9531 12.4844C76.7135 11.8594 76.7135 11.1979 76.9531 10.5C78.526 10.4167 80.2969 9.94792 82.2656 9.09375C83.3906 9.17708 84.2292 9.51562 84.7812 10.1094V10.625C85.5104 10.1146 86.2083 9.74479 86.875 9.51562C87.5521 9.27604 88.4427 9.15625 89.5469 9.15625C91.2552 9.15625 92.401 9.77604 92.9844 11.0156C94.0052 10.2656 94.8542 9.77083 95.5312 9.53125C96.2188 9.28125 97.151 9.15625 98.3281 9.15625C99.7552 9.15625 100.766 9.54688 101.359 10.3281C101.964 11.099 102.266 12.2969 102.266 13.9219C102.266 17.0156 102.318 19.6354 102.422 21.7812C102.443 22.2083 103.177 22.5156 104.625 22.7031C104.865 23.3906 104.844 24.0208 104.562 24.5938C101.51 24.5312 98.4688 24.5312 95.4375 24.5938C95.1875 23.9792 95.1875 23.349 95.4375 22.7031C95.7812 22.7031 96.125 22.6146 96.4688 22.4375C96.8125 22.25 96.9844 22.0312 96.9844 21.7812L97.0156 14.4375C97.0156 13.3021 96.7917 12.6094 96.3438 12.3594C95.4896 12.5677 94.5365 13.1302 93.4844 14.0469ZM91.25 13.375C91.1875 12.1354 90.9427 11.2292 90.5156 10.6562C90.0885 10.0833 89.3958 9.79688 88.4375 9.79688C87.7292 9.79688 86.9948 10 86.2344 10.4062C85.4844 10.8125 84.8854 11.2135 84.4375 11.6094C83.9896 11.9948 83.3698 12.5833 82.5781 13.375V10.2656C82.4948 10.099 82.3125 9.96354 82.0312 9.85938C80.5833 10.5365 79.0781 10.9635 77.5156 11.1406C77.4531 11.3906 77.4531 11.6354 77.5156 11.875C78.7135 11.9375 79.599 12.151 80.1719 12.5156C80.2448 15.6302 80.2448 18.7188 80.1719 21.7812C80.151 22.5521 79.2552 23.0521 77.4844 23.2812C77.3594 23.5208 77.3594 23.776 77.4844 24.0469C80.151 23.9635 82.8073 23.9635 85.4531 24.0469C85.5885 23.776 85.5885 23.5208 85.4531 23.2812C83.6406 23.0729 82.724 22.5729 82.7031 21.7812C82.6198 19.6146 82.5781 17.1458 82.5781 14.375C83.6615 13.4271 84.5469 12.7292 85.2344 12.2812C85.9219 11.8333 86.5729 11.6094 87.1875 11.6094C88.3125 11.6094 88.875 12.5521 88.875 14.4375L88.8438 21.7812C88.8438 22.5938 88.2917 23.0938 87.1875 23.2812C87.0625 23.5208 87.0625 23.776 87.1875 24.0469C89.5312 23.9844 91.8646 23.9844 94.1875 24.0469C94.3229 23.776 94.3229 23.5208 94.1875 23.2812C93.6354 23.2396 93.1875 23.1823 92.8438 23.1094C92.5104 23.0365 92.1927 22.8906 91.8906 22.6719C91.5885 22.4427 91.4375 22.1458 91.4375 21.7812L91.2812 14.375C92.3646 13.4271 93.25 12.7292 93.9375 12.2812C94.625 11.8333 95.276 11.6094 95.8906 11.6094C97.0156 11.6094 97.5781 12.5521 97.5781 14.4375L97.5469 21.7812C97.5469 22.5938 96.9948 23.0938 95.8906 23.2812C95.7656 23.5208 95.7656 23.776 95.8906 24.0469C98.5781 23.9844 101.276 23.9844 103.984 24.0469C104.13 23.7969 104.13 23.5417 103.984 23.2812C101.443 23.1562 100.161 22.6562 100.141 21.7812L99.9844 13.9219C99.9427 12.4948 99.7135 11.4531 99.2969 10.7969C98.8802 10.1302 98.1615 9.79688 97.1406 9.79688C96.4323 9.79688 95.6979 9.99479 94.9375 10.3906C94.1875 10.776 93.5781 11.1771 93.1094 11.5938C92.6406 12.0104 92.0208 12.6042 91.25 13.375ZM114.188 10.8125C115.26 10.8125 116.109 11.3281 116.734 12.3594C117.37 13.3802 117.688 14.9688 117.688 17.125C117.688 19.2812 117.37 20.8698 116.734 21.8906C116.109 22.9115 115.26 23.4219 114.188 23.4219C113.594 23.4219 113.052 23.2969 112.562 23.0469C112.083 22.7969 111.672 22.4115 111.328 21.8906C110.995 21.3698 110.734 20.7188 110.547 19.9375C110.359 19.1458 110.266 18.2083 110.266 17.125C110.266 16.0521 110.359 15.1198 110.547 14.3281C110.734 13.526 110.995 12.8698 111.328 12.3594C111.672 11.8385 112.083 11.4531 112.562 11.2031C113.052 10.9427 113.594 10.8125 114.188 10.8125ZM114.188 24.4531C115.156 24.4531 116.026 24.2708 116.797 23.9062C117.568 23.5417 118.224 23.0365 118.766 22.3906C119.318 21.7344 119.74 20.9583 120.031 20.0625C120.323 19.1667 120.469 18.1875 120.469 17.125C120.469 16.0625 120.323 15.0833 120.031 14.1875C119.74 13.2917 119.318 12.5208 118.766 11.875C118.224 11.2188 117.568 10.7083 116.797 10.3438C116.026 9.97917 115.156 9.79688 114.188 9.79688C113.156 9.79688 112.224 9.97917 111.391 10.3438C110.557 10.7083 109.849 11.2135 109.266 11.8594C108.693 12.5052 108.25 13.2812 107.938 14.1875C107.625 15.0833 107.469 16.0625 107.469 17.125C107.469 18.1979 107.625 19.1823 107.938 20.0781C108.25 20.974 108.693 21.75 109.266 22.4062C109.849 23.0521 110.557 23.5573 111.391 23.9219C112.224 24.276 113.156 24.4531 114.188 24.4531ZM114.734 9.15625C115.995 9.15625 117.115 9.34896 118.094 9.73438C119.083 10.1198 119.917 10.6667 120.594 11.375C121.271 12.0729 121.786 12.9115 122.141 13.8906C122.495 14.8698 122.672 15.9479 122.672 17.125C122.672 18.2917 122.495 19.3646 122.141 20.3438C121.786 21.3229 121.271 22.1667 120.594 22.875C119.927 23.5729 119.099 24.1146 118.109 24.5C117.12 24.8958 115.995 25.0938 114.734 25.0938C113.484 25.0938 112.365 24.8958 111.375 24.5C110.396 24.1146 109.568 23.5729 108.891 22.875C108.224 22.1667 107.714 21.3281 107.359 20.3594C107.005 19.3802 106.828 18.3021 106.828 17.125C106.828 15.9479 107.005 14.8698 107.359 13.8906C107.714 12.9115 108.229 12.0729 108.906 11.375C109.583 10.6667 110.411 10.1198 111.391 9.73438C112.37 9.34896 113.484 9.15625 114.734 9.15625ZM112.469 17.125C112.469 20.4896 113.224 22.3542 114.734 22.7188C116.276 22.3542 117.047 20.4896 117.047 17.125C117.047 13.7917 116.276 11.9219 114.734 11.5156C113.224 11.9219 112.469 13.7917 112.469 17.125ZM128.141 24.1875C127.641 24.3542 127.151 24.5573 126.672 24.7969C126.182 24.4948 125.859 24.1875 125.703 23.875C125.724 23.8125 125.755 23.599 125.797 23.2344C125.839 22.8698 125.88 22.4427 125.922 21.9531C125.974 21.4635 126.016 20.9583 126.047 20.4375C126.078 19.9167 126.094 19.474 126.094 19.1094C126.583 18.8802 127.339 18.7656 128.359 18.7656C128.474 18.7656 128.589 18.7656 128.703 18.7656C128.818 18.7656 128.938 18.7708 129.062 18.7812C129.812 21.2188 130.839 22.5417 132.141 22.75C132.672 22.6667 133.078 22.474 133.359 22.1719C133.651 21.8594 133.797 21.5104 133.797 21.125C133.797 20.8438 133.719 20.5833 133.562 20.3438C133.406 20.0938 133.198 19.8646 132.938 19.6562C132.677 19.4479 132.37 19.2552 132.016 19.0781C131.672 18.901 131.307 18.7292 130.922 18.5625C130.536 18.3854 130.146 18.2188 129.75 18.0625C129.354 17.8958 128.974 17.724 128.609 17.5469C128.224 17.3698 127.859 17.1562 127.516 16.9062C127.172 16.6458 126.87 16.3542 126.609 16.0312C126.349 15.6979 126.141 15.3333 125.984 14.9375C125.839 14.5417 125.766 14.1146 125.766 13.6562C125.766 13.1667 125.849 12.6562 126.016 12.125C126.182 11.5938 126.469 11.1094 126.875 10.6719C127.281 10.2344 127.828 9.875 128.516 9.59375C129.203 9.30208 130.068 9.15625 131.109 9.15625C132.266 9.15625 133.12 9.21875 133.672 9.34375L134.25 9.15625H135.312C135.448 10.0417 135.609 10.8698 135.797 11.6406C135.995 12.4115 136.214 13.1302 136.453 13.7969C136.005 14.2448 135.464 14.4688 134.828 14.4688C134.474 14.0521 134.146 13.6771 133.844 13.3438C133.542 13 133.25 12.7031 132.969 12.4531C132.698 12.2031 132.427 12 132.156 11.8438C131.896 11.6875 131.625 11.5781 131.344 11.5156C130.656 11.6302 130.312 11.9427 130.312 12.4531C130.312 12.8594 130.49 13.2135 130.844 13.5156C131.198 13.8177 131.641 14.0938 132.172 14.3438C132.703 14.5938 133.281 14.8333 133.906 15.0625C134.542 15.2812 135.141 15.5156 135.703 15.7656C136.109 15.9427 136.49 16.1719 136.844 16.4531C137.208 16.7344 137.526 17.0625 137.797 17.4375C138.068 17.8021 138.281 18.2135 138.438 18.6719C138.594 19.1198 138.672 19.6042 138.672 20.125C138.672 20.8958 138.474 21.5885 138.078 22.2031C137.693 22.8177 137.177 23.3385 136.531 23.7656C135.896 24.1927 135.167 24.5208 134.344 24.75C133.521 24.9792 132.682 25.0938 131.828 25.0938C130.359 25.0938 129.13 24.7917 128.141 24.1875ZM131.719 24.4531C133.021 24.4531 134.135 24.0677 135.062 23.2969C135.99 22.526 136.453 21.6615 136.453 20.7031C136.453 19.7656 136.167 18.9583 135.594 18.2812C135.021 17.5938 134.328 17.0625 133.516 16.6875C132.703 16.3125 131.885 15.9688 131.062 15.6562C130.24 15.3333 129.542 14.9583 128.969 14.5312C128.396 14.1042 128.109 13.6042 128.109 13.0312C128.109 12.3021 128.38 11.75 128.922 11.375C129.464 11 130.099 10.8125 130.828 10.8125C131.599 10.8125 132.286 11.0521 132.891 11.5312C133.495 12.0104 134.234 12.776 135.109 13.8281C135.391 13.8281 135.594 13.7604 135.719 13.625C135.333 12.5208 134.76 11.6094 134 10.8906C133.25 10.1615 132.286 9.79688 131.109 9.79688C129.432 9.79688 128.229 10.1979 127.5 11C126.771 11.7917 126.406 12.6771 126.406 13.6562C126.406 14.4896 126.682 15.2031 127.234 15.7969C127.797 16.3802 128.469 16.8333 129.25 17.1562C130.042 17.4688 130.828 17.7812 131.609 18.0938C132.391 18.4062 133.057 18.8125 133.609 19.3125C134.161 19.8125 134.438 20.4167 134.438 21.125C134.438 21.7188 134.182 22.25 133.672 22.7188C133.161 23.1875 132.448 23.4219 131.531 23.4219C130.427 23.4219 129.573 23.0729 128.969 22.375C128.375 21.6667 127.875 20.6823 127.469 19.4219C127.104 19.4219 126.859 19.4531 126.734 19.5156C126.734 20.2656 126.698 21.125 126.625 22.0938C126.552 23.0625 126.479 23.6354 126.406 23.8125C126.479 23.9167 126.578 24.0104 126.703 24.0938C127.13 23.7917 127.458 23.474 127.688 23.1406C128.604 23.651 129.318 23.9948 129.828 24.1719C130.349 24.3594 130.979 24.4531 131.719 24.4531ZM10.6875 53.8438C11.9167 53.8438 12.849 54.3438 13.4844 55.3438C14.1302 56.3438 14.4531 57.6146 14.4531 59.1562C14.4531 61.4167 14.0521 63.026 13.25 63.9844C12.4583 64.9427 11.5938 65.4219 10.6562 65.4219C8.86458 65.4219 7.61458 64.7604 6.90625 63.4375V55.3125C8.10417 54.3333 9.36458 53.8438 10.6875 53.8438ZM13.8125 59.1562C13.8125 57.9375 13.5885 56.901 13.1406 56.0469C12.6927 55.1927 12.0417 54.6927 11.1875 54.5469C10.4688 54.651 9.77604 55 9.10938 55.5938V63.3438C9.51562 64.1354 10.1667 64.6042 11.0625 64.75C11.8125 64.6042 12.4583 64.0938 13 63.2188C13.5417 62.3438 13.8125 60.9896 13.8125 59.1562ZM1.5 53.875H1.53125C2.9375 53.9375 3.9375 54.151 4.53125 54.5156C4.53125 62.4948 4.52083 68.3802 4.5 72.1719C4.47917 72.9427 3.59375 73.4479 1.84375 73.6875C1.78125 73.9167 1.78125 74.1615 1.84375 74.4219C4.57292 74.2865 7.55208 74.2865 10.7812 74.4219C10.9062 74.1823 10.9062 73.9375 10.7812 73.6875C8.30208 73.4479 7.05208 72.9427 7.03125 72.1719L6.9375 65.9062C7.95833 66.2708 9.04688 66.4531 10.2031 66.4531C11.4219 66.4531 12.4948 66.2083 13.4219 65.7188C14.349 65.2188 15.0729 64.5729 15.5938 63.7812C16.1146 62.9792 16.5052 62.125 16.7656 61.2188C17.0365 60.3125 17.1719 59.3802 17.1719 58.4219C17.1719 56.3906 16.7083 54.7812 15.7812 53.5938C14.8542 52.3958 13.6562 51.7969 12.1875 51.7969C10.3958 51.7969 8.63542 52.5625 6.90625 54.0938V52.2656C6.82292 52.099 6.64062 51.9635 6.35938 51.8594C4.97396 52.5156 3.36458 52.9427 1.53125 53.1406C1.44792 53.3698 1.4375 53.6146 1.5 53.875ZM1.01562 52.5C3.04688 52.3229 4.88021 51.8177 6.51562 50.9844C7.65104 51.0781 8.49479 51.4219 9.04688 52.0156C10.026 51.4427 11.4479 51.1562 13.3125 51.1562C15.1042 51.1562 16.5625 51.8125 17.6875 53.125C18.8229 54.4375 19.3906 56.2031 19.3906 58.4219C19.3906 59.4635 19.2344 60.474 18.9219 61.4531C18.6094 62.4323 18.151 63.3542 17.5469 64.2188C16.9427 65.0833 16.099 65.776 15.0156 66.2969C13.9427 66.8281 12.7135 67.0938 11.3281 67.0938C10.4323 67.0938 9.70312 67.0729 9.14062 67.0312L9.23438 72.1406C9.25521 72.5469 9.96354 72.8698 11.3594 73.1094C11.6302 73.724 11.6302 74.375 11.3594 75.0625C7.19271 74.9062 3.86458 74.8802 1.375 74.9844C1.13542 74.3281 1.13542 73.7031 1.375 73.1094C3.01042 72.8906 3.83854 72.5677 3.85938 72.1406L3.89062 54.8906C3.21354 54.6823 2.26562 54.5469 1.04688 54.4844C0.776042 53.8594 0.765625 53.1979 1.01562 52.5ZM27.7031 57.2031C27.9635 56.2448 28.5 55.3125 29.3125 54.4062C30.125 53.5 30.9531 53.0469 31.7969 53.0469C32.7865 53.0469 33.2812 53.3646 33.2812 54C33.2812 54.5729 33.0104 54.9375 32.4688 55.0938C32.3229 55.3021 32.3229 55.5469 32.4688 55.8281C33.0312 55.8281 33.4896 55.6562 33.8438 55.3125C34.2083 54.9688 34.3906 54.4896 34.3906 53.875C34.3906 53.2292 34.1927 52.724 33.7969 52.3594C33.4115 51.9844 32.9062 51.7969 32.2812 51.7969C31.4688 51.7969 30.651 52.125 29.8281 52.7812C29.0156 53.4271 28.3073 54.151 27.7031 54.9531V52.2656C27.6198 52.099 27.4427 51.9635 27.1719 51.8594C25.776 52.5156 24.1615 52.9427 22.3281 53.1406C22.2656 53.3906 22.2656 53.6354 22.3281 53.875C23.7344 53.9375 24.7396 54.151 25.3438 54.5156C25.4271 58.401 25.4167 61.5156 25.3125 63.8594C25.2917 64.6302 24.4062 65.1302 22.6562 65.3594C22.5 65.6406 22.5 65.8854 22.6562 66.0938C25.3854 65.9688 28.3594 65.9688 31.5781 66.0938C31.724 65.8854 31.724 65.6406 31.5781 65.3594C29.1094 65.1302 27.8646 64.6302 27.8438 63.8594C27.75 61.7448 27.7031 59.526 27.7031 57.2031ZM30.0469 63.8281C30.0677 64.2344 30.7708 64.5521 32.1562 64.7812C32.5 65.4688 32.4792 66.1302 32.0938 66.7656C27.6771 66.6198 24.3385 66.5885 22.0781 66.6719C21.6927 66.0573 21.6719 65.4271 22.0156 64.7812C23.7656 64.5521 24.651 64.2344 24.6719 63.8281C24.7969 60.8594 24.8073 57.8802 24.7031 54.8906C24.0156 54.6823 23.0677 54.5469 21.8594 54.4844C21.6198 53.8594 21.6198 53.1979 21.8594 52.5C23.599 52.3958 25.4427 51.9271 27.3906 51.0938C28.5156 51.2188 29.3594 51.5573 29.9219 52.1094C30.7969 51.474 31.5833 51.1562 32.2812 51.1562C33.0938 51.1562 33.7552 51.3958 34.2656 51.875C34.776 52.3542 35.0312 53.0208 35.0312 53.875C35.0312 54.6875 34.7917 55.3229 34.3125 55.7812C33.8333 56.2396 33.2188 56.4688 32.4688 56.4688C31.7708 56.4688 31.1875 56.2344 30.7188 55.7656C30.2917 56.3385 30.026 56.8594 29.9219 57.3281C29.9219 59.5885 29.9635 61.7552 30.0469 63.8281ZM45.375 52.8125C46.4479 52.8125 47.2969 53.3281 47.9219 54.3594C48.5573 55.3802 48.875 56.9688 48.875 59.125C48.875 61.2812 48.5573 62.8698 47.9219 63.8906C47.2969 64.9115 46.4479 65.4219 45.375 65.4219C44.7812 65.4219 44.2396 65.2969 43.75 65.0469C43.2708 64.7969 42.8594 64.4115 42.5156 63.8906C42.1823 63.3698 41.9219 62.7188 41.7344 61.9375C41.5469 61.1458 41.4531 60.2083 41.4531 59.125C41.4531 58.0521 41.5469 57.1198 41.7344 56.3281C41.9219 55.526 42.1823 54.8698 42.5156 54.3594C42.8594 53.8385 43.2708 53.4531 43.75 53.2031C44.2396 52.9427 44.7812 52.8125 45.375 52.8125ZM45.375 66.4531C46.3438 66.4531 47.2135 66.2708 47.9844 65.9062C48.7552 65.5417 49.4115 65.0365 49.9531 64.3906C50.5052 63.7344 50.9271 62.9583 51.2188 62.0625C51.5104 61.1667 51.6562 60.1875 51.6562 59.125C51.6562 58.0625 51.5104 57.0833 51.2188 56.1875C50.9271 55.2917 50.5052 54.5208 49.9531 53.875C49.4115 53.2188 48.7552 52.7083 47.9844 52.3438C47.2135 51.9792 46.3438 51.7969 45.375 51.7969C44.3438 51.7969 43.4115 51.9792 42.5781 52.3438C41.7448 52.7083 41.0365 53.2135 40.4531 53.8594C39.8802 54.5052 39.4375 55.2812 39.125 56.1875C38.8125 57.0833 38.6562 58.0625 38.6562 59.125C38.6562 60.1979 38.8125 61.1823 39.125 62.0781C39.4375 62.974 39.8802 63.75 40.4531 64.4062C41.0365 65.0521 41.7448 65.5573 42.5781 65.9219C43.4115 66.276 44.3438 66.4531 45.375 66.4531ZM45.9219 51.1562C47.1823 51.1562 48.3021 51.349 49.2812 51.7344C50.2708 52.1198 51.1042 52.6667 51.7812 53.375C52.4583 54.0729 52.974 54.9115 53.3281 55.8906C53.6823 56.8698 53.8594 57.9479 53.8594 59.125C53.8594 60.2917 53.6823 61.3646 53.3281 62.3438C52.974 63.3229 52.4583 64.1667 51.7812 64.875C51.1146 65.5729 50.2865 66.1146 49.2969 66.5C48.3073 66.8958 47.1823 67.0938 45.9219 67.0938C44.6719 67.0938 43.5521 66.8958 42.5625 66.5C41.5833 66.1146 40.7552 65.5729 40.0781 64.875C39.4115 64.1667 38.901 63.3281 38.5469 62.3594C38.1927 61.3802 38.0156 60.3021 38.0156 59.125C38.0156 57.9479 38.1927 56.8698 38.5469 55.8906C38.901 54.9115 39.4167 54.0729 40.0938 53.375C40.7708 52.6667 41.599 52.1198 42.5781 51.7344C43.5573 51.349 44.6719 51.1562 45.9219 51.1562ZM43.6562 59.125C43.6562 62.4896 44.4115 64.3542 45.9219 64.7188C47.4635 64.3542 48.2344 62.4896 48.2344 59.125C48.2344 55.7917 47.4635 53.9219 45.9219 53.5156C44.4115 53.9219 43.6562 55.7917 43.6562 59.125ZM60.3125 56.9375C60.3125 55.4896 60.5833 54.4427 61.125 53.7969C61.6771 53.1406 62.3698 52.8125 63.2031 52.8125C63.8177 52.8125 64.3854 53.1094 64.9062 53.7031C65.4375 54.2865 65.7031 55.2708 65.7031 56.6562C65.7031 59.625 64.8906 61.1094 63.2656 61.1094C61.2969 61.1094 60.3125 59.7188 60.3125 56.9375ZM60.25 70.1562C60.25 69.0104 60.9115 68.0833 62.2344 67.375C63.0677 67.2917 64.349 67.25 66.0781 67.25C67.3177 67.25 68.1458 67.4792 68.5625 67.9375C68.9792 68.3958 69.1875 69.0625 69.1875 69.9375C69.1875 70.6875 68.7865 71.4635 67.9844 72.2656C67.1823 73.0781 65.9844 73.4844 64.3906 73.4844C62.9531 73.4844 61.901 73.1562 61.2344 72.5C60.5781 71.8542 60.25 71.0729 60.25 70.1562ZM70.2969 52.4688C70.5781 52.4896 70.7188 52.6354 70.7188 52.9062C70.7188 53.25 70.5052 53.4531 70.0781 53.5156C69.7135 53.5573 69.2656 53.474 68.7344 53.2656C68.4531 53.1615 68.0938 53.0156 67.6562 52.8281C67.2188 52.6302 66.9115 52.4948 66.7344 52.4219C66.5573 52.3385 66.3125 52.2448 66 52.1406C65.6875 52.0365 65.4167 51.9688 65.1875 51.9375C64.9688 51.9062 64.6927 51.875 64.3594 51.8438C64.0365 51.8125 63.6719 51.7969 63.2656 51.7969C61.6823 51.7969 60.3385 52.3281 59.2344 53.3906C58.1406 54.4531 57.5938 55.625 57.5938 56.9062C57.5938 58.9792 58.5365 60.5365 60.4219 61.5781C58.7344 62.8385 57.8906 63.9688 57.8906 64.9688C57.8906 66.2292 58.8906 67.0104 60.8906 67.3125C58.849 68.4167 57.8281 69.7396 57.8281 71.2812C57.8281 72.2812 58.2969 73.1146 59.2344 73.7812C60.1719 74.4583 61.5469 74.7969 63.3594 74.7969C65.5156 74.7969 67.3385 74.0833 68.8281 72.6562C70.3281 71.2292 71.0781 69.776 71.0781 68.2969C71.0781 65.9115 69.625 64.7188 66.7188 64.7188C66.3958 64.7188 65.9688 64.7292 65.4375 64.75C64.9062 64.7708 64.5417 64.7812 64.3438 64.7812C62.75 64.7812 61.625 64.6771 60.9688 64.4688C60.3229 64.25 60 63.9062 60 63.4375C60 62.8438 60.4583 62.3542 61.375 61.9688C62.0104 62.0729 62.6823 62.125 63.3906 62.125C64.7969 62.125 65.9844 61.6354 66.9531 60.6562C67.9323 59.6771 68.4219 58.3542 68.4219 56.6875C68.4219 55.3646 68.1719 54.3646 67.6719 53.6875L67.75 53.6094C67.9167 53.724 68.1406 53.8854 68.4219 54.0938C68.7135 54.2917 68.9323 54.4323 69.0781 54.5156C69.2344 54.599 69.4323 54.6823 69.6719 54.7656C69.9219 54.849 70.1667 54.8906 70.4062 54.8906C70.8021 54.8906 71.1354 54.7396 71.4062 54.4375C71.6771 54.125 71.8125 53.7552 71.8125 53.3281C71.8125 52.8802 71.6823 52.5052 71.4219 52.2031C71.1719 51.8906 70.7969 51.7344 70.2969 51.7344C70.151 52.0052 70.151 52.25 70.2969 52.4688ZM70.5 55.5312C70.5833 55.875 70.625 56.2604 70.625 56.6875C70.625 58.5417 70.0312 60.0208 68.8438 61.125C67.6667 62.2188 66.224 62.7656 64.5156 62.7656H62.5625C62.2604 63.1094 62.1719 63.4167 62.2969 63.6875C62.4323 63.9479 62.6823 64.0781 63.0469 64.0781H68.2812C71.6146 64.0781 73.2812 65.4844 73.2812 68.2969C73.2812 69.0469 73.0573 69.8333 72.6094 70.6562C72.1615 71.4792 71.5365 72.2448 70.7344 72.9531C69.9323 73.6719 68.8802 74.2656 67.5781 74.7344C66.276 75.2031 64.8698 75.4375 63.3594 75.4375C61.3281 75.4375 59.7917 75.0417 58.75 74.25C57.7083 73.4688 57.1875 72.4792 57.1875 71.2812C57.1875 69.9583 57.8802 68.7292 59.2656 67.5938C57.9219 67.125 57.25 66.25 57.25 64.9688C57.25 63.8646 57.9323 62.7448 59.2969 61.6094C57.7344 60.4844 56.9531 58.9167 56.9531 56.9062C56.9531 55.4792 57.5677 54.1667 58.7969 52.9688C60.026 51.7604 61.5156 51.1562 63.2656 51.1562C64.5677 51.1562 65.526 51.224 66.1406 51.3594C66.7656 51.4948 67.5469 51.7552 68.4844 52.1406C68.9531 51.4427 69.5573 51.0938 70.2969 51.0938C71.026 51.0938 71.5677 51.3073 71.9219 51.7344C72.276 52.1615 72.4531 52.6927 72.4531 53.3281C72.4531 53.9427 72.276 54.4635 71.9219 54.8906C71.5677 55.3177 71.0938 55.5312 70.5 55.5312ZM62.4688 70.1562C62.4688 70.8229 62.6615 71.4062 63.0469 71.9062C63.4427 72.4062 64.0781 72.7083 64.9531 72.8125C66.151 72.7083 67.0469 72.3385 67.6406 71.7031C68.2448 71.0781 68.5469 70.4896 68.5469 69.9375C68.5469 69.2917 68.401 68.7865 68.1094 68.4219C67.8177 68.0677 67.2604 67.8906 66.4375 67.8906C65.4479 67.8906 64.474 67.9323 63.5156 68.0156C62.8177 68.6094 62.4688 69.3229 62.4688 70.1562ZM62.5312 56.9375C62.5312 58.9062 62.9583 60.0521 63.8125 60.375C64.6458 60.0521 65.0625 58.8125 65.0625 56.6562C65.0625 54.9479 64.625 53.9219 63.75 53.5781C62.9375 53.9219 62.5312 55.0417 62.5312 56.9375ZM80.4844 57.2031C80.7448 56.2448 81.2812 55.3125 82.0938 54.4062C82.9062 53.5 83.7344 53.0469 84.5781 53.0469C85.5677 53.0469 86.0625 53.3646 86.0625 54C86.0625 54.5729 85.7917 54.9375 85.25 55.0938C85.1042 55.3021 85.1042 55.5469 85.25 55.8281C85.8125 55.8281 86.2708 55.6562 86.625 55.3125C86.9896 54.9688 87.1719 54.4896 87.1719 53.875C87.1719 53.2292 86.974 52.724 86.5781 52.3594C86.1927 51.9844 85.6875 51.7969 85.0625 51.7969C84.25 51.7969 83.4323 52.125 82.6094 52.7812C81.7969 53.4271 81.0885 54.151 80.4844 54.9531V52.2656C80.401 52.099 80.224 51.9635 79.9531 51.8594C78.5573 52.5156 76.9427 52.9427 75.1094 53.1406C75.0469 53.3906 75.0469 53.6354 75.1094 53.875C76.5156 53.9375 77.5208 54.151 78.125 54.5156C78.2083 58.401 78.1979 61.5156 78.0938 63.8594C78.0729 64.6302 77.1875 65.1302 75.4375 65.3594C75.2812 65.6406 75.2812 65.8854 75.4375 66.0938C78.1667 65.9688 81.1406 65.9688 84.3594 66.0938C84.5052 65.8854 84.5052 65.6406 84.3594 65.3594C81.8906 65.1302 80.6458 64.6302 80.625 63.8594C80.5312 61.7448 80.4844 59.526 80.4844 57.2031ZM82.8281 63.8281C82.849 64.2344 83.5521 64.5521 84.9375 64.7812C85.2812 65.4688 85.2604 66.1302 84.875 66.7656C80.4583 66.6198 77.1198 66.5885 74.8594 66.6719C74.474 66.0573 74.4531 65.4271 74.7969 64.7812C76.5469 64.5521 77.4323 64.2344 77.4531 63.8281C77.5781 60.8594 77.5885 57.8802 77.4844 54.8906C76.7969 54.6823 75.849 54.5469 74.6406 54.4844C74.401 53.8594 74.401 53.1979 74.6406 52.5C76.3802 52.3958 78.224 51.9271 80.1719 51.0938C81.2969 51.2188 82.1406 51.5573 82.7031 52.1094C83.5781 51.474 84.3646 51.1562 85.0625 51.1562C85.875 51.1562 86.5365 51.3958 87.0469 51.875C87.5573 52.3542 87.8125 53.0208 87.8125 53.875C87.8125 54.6875 87.5729 55.3229 87.0938 55.7812C86.6146 56.2396 86 56.4688 85.25 56.4688C84.5521 56.4688 83.9688 56.2344 83.5 55.7656C83.0729 56.3385 82.8073 56.8594 82.7031 57.3281C82.7031 59.5885 82.7448 61.7552 82.8281 63.8281ZM94.3594 54.6406C94.849 54.724 95.2344 54.9167 95.5156 55.2188C95.8073 55.5104 95.9531 55.8854 95.9531 56.3438C95.9531 56.8958 95.7708 57.3542 95.4062 57.7188C95.0417 58.0729 94.5625 58.25 93.9688 58.25C93.3542 58.25 92.7969 58.0312 92.2969 57.5938C91.7969 57.1562 91.5469 56.5365 91.5469 55.7344C91.5469 54.3698 92.1927 53.2656 93.4844 52.4219C94.7865 51.5781 96.4844 51.1562 98.5781 51.1562C100.568 51.1562 101.964 51.5573 102.766 52.3594C103.578 53.151 103.984 54.4896 103.984 56.375V61.8438L104.984 61.8125C105.839 61.875 106.432 62.2812 106.766 63.0312L106.266 63.8906C105.943 64.3802 105.672 64.7604 105.453 65.0312C105.245 65.2917 104.943 65.5885 104.547 65.9219C104.151 66.2552 103.688 66.4948 103.156 66.6406C102.625 66.7865 102.005 66.8594 101.297 66.8594C100.422 66.8594 99.7604 66.5312 99.3125 65.875C98.1875 66.6875 96.7188 67.0938 94.9062 67.0938C94.1146 67.0938 93.4375 66.9688 92.875 66.7188C92.3229 66.4792 91.9167 66.1562 91.6562 65.75C91.4062 65.3438 91.2292 64.9635 91.125 64.6094C91.0208 64.2552 90.9688 63.8958 90.9688 63.5312C90.9688 62 91.4844 60.8542 92.5156 60.0938C93.5469 59.3333 95.6302 58.5521 98.7656 57.75V56.0469C98.7656 55.2135 98.5885 54.6042 98.2344 54.2188C97.8906 53.8333 97.4427 53.6406 96.8906 53.6406C95.7135 53.6406 94.8698 53.974 94.3594 54.6406ZM99.4062 59.2188V62.4844C98.4062 63.8073 97.3854 64.4688 96.3438 64.4688C95.7396 64.4688 95.2448 64.3229 94.8594 64.0312C94.4844 63.7396 94.2969 63.3281 94.2969 62.7969C94.2969 61.9427 94.6458 61.2396 95.3438 60.6875C96.0521 60.1354 97.4062 59.6458 99.4062 59.2188ZM98.7656 62.2812V60.375C97.2552 60.9271 96.5 61.7344 96.5 62.7969C96.5 63.2448 96.6615 63.5573 96.9844 63.7344C97.5365 63.5365 98.1302 63.0521 98.7656 62.2812ZM93.9688 56.875C93.6042 56.875 93.349 56.6094 93.2031 56.0781C92.9948 55.224 93.25 54.4792 93.9688 53.8438C94.6771 53.2188 95.7448 52.9062 97.1719 52.9062C97.849 52.9062 98.3906 53.1719 98.7969 53.7031C99.2031 54.224 99.4062 55.0052 99.4062 56.0469V58.2188C96.3333 59.0104 94.2656 59.7604 93.2031 60.4688C92.1406 61.1667 91.6094 62.1875 91.6094 63.5312C91.6094 64.2396 91.849 64.9062 92.3281 65.5312C92.8073 66.1458 93.6667 66.4531 94.9062 66.4531C95.3958 66.4531 95.8542 66.375 96.2812 66.2188C96.7188 66.0625 97.1667 65.8125 97.625 65.4688C98.0938 65.1146 98.3802 64.8906 98.4844 64.7969C98.5885 64.7031 98.7604 64.5417 99 64.3125C99.25 64.0729 99.3854 63.9427 99.4062 63.9219C99.5417 65.4531 100.172 66.2188 101.297 66.2188C101.578 66.2188 101.901 66.1458 102.266 66C102.63 65.8542 102.995 65.5677 103.359 65.1406C103.734 64.7135 103.969 64.4323 104.062 64.2969C104.167 64.151 104.318 63.9271 104.516 63.625C104.714 63.3125 104.859 63.099 104.953 62.9844C104.818 62.6927 104.557 62.526 104.172 62.4844C103.599 63.3594 103.016 63.7865 102.422 63.7656C101.995 63.7448 101.781 63.4427 101.781 62.8594V56.375C101.781 54.7083 101.453 53.5312 100.797 52.8438C100.151 52.1458 99.0365 51.7969 97.4531 51.7969C96.026 51.7969 94.7865 52.1667 93.7344 52.9062C92.6927 53.6354 92.1719 54.5781 92.1719 55.7344C92.1719 56.3281 92.3542 56.7917 92.7188 57.125C93.0833 57.4479 93.5 57.6094 93.9688 57.6094C94.1146 57.401 94.1146 57.1562 93.9688 56.875ZM124.828 56.0469C124.828 59.0573 124.885 61.6354 125 63.7812C125.021 64.3333 125.37 64.6406 126.047 64.7031C126.307 65.349 126.307 65.9792 126.047 66.5938C123.38 66.5312 120.703 66.5312 118.016 66.5938C117.766 65.9792 117.766 65.349 118.016 64.7031C119.036 64.5573 119.547 64.25 119.547 63.7812L119.578 56.4375C119.578 55.3021 119.354 54.6094 118.906 54.3594C117.99 54.5885 117.062 55.151 116.125 56.0469C116.125 58.9115 116.167 61.4792 116.25 63.75C116.281 64.0208 116.359 64.2292 116.484 64.375C116.609 64.5104 116.885 64.6198 117.312 64.7031C117.573 65.349 117.573 65.9792 117.312 66.5938C114.323 66.5104 111.318 66.5104 108.297 66.5938C108.036 65.9792 108.036 65.349 108.297 64.7031C109.995 64.474 110.854 64.1562 110.875 63.75C110.969 61.4062 110.969 58.4531 110.875 54.8906C110.177 54.6823 109.318 54.5469 108.297 54.4844C108.057 53.8594 108.057 53.1979 108.297 52.5C109.87 52.4167 111.641 51.9479 113.609 51.0938C114.734 51.1771 115.573 51.5156 116.125 52.1094V52.625C116.854 52.1146 117.552 51.7448 118.219 51.5156C118.896 51.276 119.786 51.1562 120.891 51.1562C122.599 51.1562 123.745 51.776 124.328 53.0156C125.349 52.2656 126.198 51.7708 126.875 51.5312C127.562 51.2812 128.495 51.1562 129.672 51.1562C131.099 51.1562 132.109 51.5469 132.703 52.3281C133.307 53.099 133.609 54.2969 133.609 55.9219C133.609 59.0156 133.661 61.6354 133.766 63.7812C133.786 64.2083 134.521 64.5156 135.969 64.7031C136.208 65.3906 136.188 66.0208 135.906 66.5938C132.854 66.5312 129.812 66.5312 126.781 66.5938C126.531 65.9792 126.531 65.349 126.781 64.7031C127.125 64.7031 127.469 64.6146 127.812 64.4375C128.156 64.25 128.328 64.0312 128.328 63.7812L128.359 56.4375C128.359 55.3021 128.135 54.6094 127.688 54.3594C126.833 54.5677 125.88 55.1302 124.828 56.0469ZM122.594 55.375C122.531 54.1354 122.286 53.2292 121.859 52.6562C121.432 52.0833 120.74 51.7969 119.781 51.7969C119.073 51.7969 118.339 52 117.578 52.4062C116.828 52.8125 116.229 53.2135 115.781 53.6094C115.333 53.9948 114.714 54.5833 113.922 55.375V52.2656C113.839 52.099 113.656 51.9635 113.375 51.8594C111.927 52.5365 110.422 52.9635 108.859 53.1406C108.797 53.3906 108.797 53.6354 108.859 53.875C110.057 53.9375 110.943 54.151 111.516 54.5156C111.589 57.6302 111.589 60.7188 111.516 63.7812C111.495 64.5521 110.599 65.0521 108.828 65.2812C108.703 65.5208 108.703 65.776 108.828 66.0469C111.495 65.9635 114.151 65.9635 116.797 66.0469C116.932 65.776 116.932 65.5208 116.797 65.2812C114.984 65.0729 114.068 64.5729 114.047 63.7812C113.964 61.6146 113.922 59.1458 113.922 56.375C115.005 55.4271 115.891 54.7292 116.578 54.2812C117.266 53.8333 117.917 53.6094 118.531 53.6094C119.656 53.6094 120.219 54.5521 120.219 56.4375L120.188 63.7812C120.188 64.5938 119.635 65.0938 118.531 65.2812C118.406 65.5208 118.406 65.776 118.531 66.0469C120.875 65.9844 123.208 65.9844 125.531 66.0469C125.667 65.776 125.667 65.5208 125.531 65.2812C124.979 65.2396 124.531 65.1823 124.188 65.1094C123.854 65.0365 123.536 64.8906 123.234 64.6719C122.932 64.4427 122.781 64.1458 122.781 63.7812L122.625 56.375C123.708 55.4271 124.594 54.7292 125.281 54.2812C125.969 53.8333 126.62 53.6094 127.234 53.6094C128.359 53.6094 128.922 54.5521 128.922 56.4375L128.891 63.7812C128.891 64.5938 128.339 65.0938 127.234 65.2812C127.109 65.5208 127.109 65.776 127.234 66.0469C129.922 65.9844 132.62 65.9844 135.328 66.0469C135.474 65.7969 135.474 65.5417 135.328 65.2812C132.786 65.1562 131.505 64.6562 131.484 63.7812L131.328 55.9219C131.286 54.4948 131.057 53.4531 130.641 52.7969C130.224 52.1302 129.505 51.7969 128.484 51.7969C127.776 51.7969 127.042 51.9948 126.281 52.3906C125.531 52.776 124.922 53.1771 124.453 53.5938C123.984 54.0104 123.365 54.6042 122.594 55.375ZM141.734 54.6406C142.224 54.724 142.609 54.9167 142.891 55.2188C143.182 55.5104 143.328 55.8854 143.328 56.3438C143.328 56.8958 143.146 57.3542 142.781 57.7188C142.417 58.0729 141.938 58.25 141.344 58.25C140.729 58.25 140.172 58.0312 139.672 57.5938C139.172 57.1562 138.922 56.5365 138.922 55.7344C138.922 54.3698 139.568 53.2656 140.859 52.4219C142.161 51.5781 143.859 51.1562 145.953 51.1562C147.943 51.1562 149.339 51.5573 150.141 52.3594C150.953 53.151 151.359 54.4896 151.359 56.375V61.8438L152.359 61.8125C153.214 61.875 153.807 62.2812 154.141 63.0312L153.641 63.8906C153.318 64.3802 153.047 64.7604 152.828 65.0312C152.62 65.2917 152.318 65.5885 151.922 65.9219C151.526 66.2552 151.062 66.4948 150.531 66.6406C150 66.7865 149.38 66.8594 148.672 66.8594C147.797 66.8594 147.135 66.5312 146.688 65.875C145.562 66.6875 144.094 67.0938 142.281 67.0938C141.49 67.0938 140.812 66.9688 140.25 66.7188C139.698 66.4792 139.292 66.1562 139.031 65.75C138.781 65.3438 138.604 64.9635 138.5 64.6094C138.396 64.2552 138.344 63.8958 138.344 63.5312C138.344 62 138.859 60.8542 139.891 60.0938C140.922 59.3333 143.005 58.5521 146.141 57.75V56.0469C146.141 55.2135 145.964 54.6042 145.609 54.2188C145.266 53.8333 144.818 53.6406 144.266 53.6406C143.089 53.6406 142.245 53.974 141.734 54.6406ZM146.781 59.2188V62.4844C145.781 63.8073 144.76 64.4688 143.719 64.4688C143.115 64.4688 142.62 64.3229 142.234 64.0312C141.859 63.7396 141.672 63.3281 141.672 62.7969C141.672 61.9427 142.021 61.2396 142.719 60.6875C143.427 60.1354 144.781 59.6458 146.781 59.2188ZM146.141 62.2812V60.375C144.63 60.9271 143.875 61.7344 143.875 62.7969C143.875 63.2448 144.036 63.5573 144.359 63.7344C144.911 63.5365 145.505 63.0521 146.141 62.2812ZM141.344 56.875C140.979 56.875 140.724 56.6094 140.578 56.0781C140.37 55.224 140.625 54.4792 141.344 53.8438C142.052 53.2188 143.12 52.9062 144.547 52.9062C145.224 52.9062 145.766 53.1719 146.172 53.7031C146.578 54.224 146.781 55.0052 146.781 56.0469V58.2188C143.708 59.0104 141.641 59.7604 140.578 60.4688C139.516 61.1667 138.984 62.1875 138.984 63.5312C138.984 64.2396 139.224 64.9062 139.703 65.5312C140.182 66.1458 141.042 66.4531 142.281 66.4531C142.771 66.4531 143.229 66.375 143.656 66.2188C144.094 66.0625 144.542 65.8125 145 65.4688C145.469 65.1146 145.755 64.8906 145.859 64.7969C145.964 64.7031 146.135 64.5417 146.375 64.3125C146.625 64.0729 146.76 63.9427 146.781 63.9219C146.917 65.4531 147.547 66.2188 148.672 66.2188C148.953 66.2188 149.276 66.1458 149.641 66C150.005 65.8542 150.37 65.5677 150.734 65.1406C151.109 64.7135 151.344 64.4323 151.438 64.2969C151.542 64.151 151.693 63.9271 151.891 63.625C152.089 63.3125 152.234 63.099 152.328 62.9844C152.193 62.6927 151.932 62.526 151.547 62.4844C150.974 63.3594 150.391 63.7865 149.797 63.7656C149.37 63.7448 149.156 63.4427 149.156 62.8594V56.375C149.156 54.7083 148.828 53.5312 148.172 52.8438C147.526 52.1458 146.411 51.7969 144.828 51.7969C143.401 51.7969 142.161 52.1667 141.109 52.9062C140.068 53.6354 139.547 54.5781 139.547 55.7344C139.547 56.3281 139.729 56.7917 140.094 57.125C140.458 57.4479 140.875 57.6094 141.344 57.6094C141.49 57.401 141.49 57.1562 141.344 56.875ZM161.484 57.2031C161.745 56.2448 162.281 55.3125 163.094 54.4062C163.906 53.5 164.734 53.0469 165.578 53.0469C166.568 53.0469 167.062 53.3646 167.062 54C167.062 54.5729 166.792 54.9375 166.25 55.0938C166.104 55.3021 166.104 55.5469 166.25 55.8281C166.812 55.8281 167.271 55.6562 167.625 55.3125C167.99 54.9688 168.172 54.4896 168.172 53.875C168.172 53.2292 167.974 52.724 167.578 52.3594C167.193 51.9844 166.688 51.7969 166.062 51.7969C165.25 51.7969 164.432 52.125 163.609 52.7812C162.797 53.4271 162.089 54.151 161.484 54.9531V52.2656C161.401 52.099 161.224 51.9635 160.953 51.8594C159.557 52.5156 157.943 52.9427 156.109 53.1406C156.047 53.3906 156.047 53.6354 156.109 53.875C157.516 53.9375 158.521 54.151 159.125 54.5156C159.208 58.401 159.198 61.5156 159.094 63.8594C159.073 64.6302 158.188 65.1302 156.438 65.3594C156.281 65.6406 156.281 65.8854 156.438 66.0938C159.167 65.9688 162.141 65.9688 165.359 66.0938C165.505 65.8854 165.505 65.6406 165.359 65.3594C162.891 65.1302 161.646 64.6302 161.625 63.8594C161.531 61.7448 161.484 59.526 161.484 57.2031ZM163.828 63.8281C163.849 64.2344 164.552 64.5521 165.938 64.7812C166.281 65.4688 166.26 66.1302 165.875 66.7656C161.458 66.6198 158.12 66.5885 155.859 66.6719C155.474 66.0573 155.453 65.4271 155.797 64.7812C157.547 64.5521 158.432 64.2344 158.453 63.8281C158.578 60.8594 158.589 57.8802 158.484 54.8906C157.797 54.6823 156.849 54.5469 155.641 54.4844C155.401 53.8594 155.401 53.1979 155.641 52.5C157.38 52.3958 159.224 51.9271 161.172 51.0938C162.297 51.2188 163.141 51.5573 163.703 52.1094C164.578 51.474 165.365 51.1562 166.062 51.1562C166.875 51.1562 167.536 51.3958 168.047 51.875C168.557 52.3542 168.812 53.0208 168.812 53.875C168.812 54.6875 168.573 55.3229 168.094 55.7812C167.615 56.2396 167 56.4688 166.25 56.4688C165.552 56.4688 164.969 56.2344 164.5 55.7656C164.073 56.3385 163.807 56.8594 163.703 57.3281C163.703 59.5885 163.745 61.7552 163.828 63.8281Z" fill="black"/>
</svg>
